<?xml version="1.0" encoding="UTF-8"?>
<svg version="1.1" xmlns="http://www.w3.org/2000/svg" width="1042" height="419">
<path d="M0 0 C1.50002465 -0.00946191 1.50002465 -0.00946191 3.03035283 -0.01911497 C4.13713659 -0.02097697 5.24392035 -0.02283896 6.38424301 -0.02475739 C7.55369799 -0.03055077 8.72315298 -0.03634416 9.92804599 -0.0423131 C13.18419519 -0.05728026 16.44032219 -0.06768785 19.69649386 -0.07607794 C22.48689803 -0.08407411 25.27728173 -0.09576626 28.06767234 -0.10749274 C38.06312296 -0.14942608 48.0585976 -0.17660724 58.05410385 -0.20114899 C58.84269283 -0.20312389 59.63128181 -0.20509879 60.44376743 -0.20713353 C76.09660725 -0.24629084 91.74945496 -0.28000405 107.40232849 -0.30221558 C110.84468472 -0.30718504 114.28704083 -0.31222934 117.72939682 -0.31735992 C118.58499839 -0.3186306 119.44059997 -0.31990127 120.32212886 -0.32121044 C134.185533 -0.34257533 148.04870026 -0.39157452 161.91198519 -0.45160407 C176.13893118 -0.51270133 190.36575489 -0.54739998 204.59283042 -0.55668879 C212.58339718 -0.56260383 220.57356267 -0.58039647 228.56399918 -0.62807465 C235.36852552 -0.6686388 242.17258515 -0.68556759 248.97722706 -0.67142183 C252.4496737 -0.66494645 255.92112594 -0.66985691 259.39341927 -0.70529556 C263.15803234 -0.73778508 266.92014439 -0.72732037 270.68478012 -0.70590973 C271.78264099 -0.7256175 272.88050187 -0.74532527 274.01163125 -0.76563025 C278.86132808 -0.69577736 282.38757126 -0.52761471 285.96735287 2.96889305 C289.36484788 7.85431544 289.11209132 13.01119338 289.03019333 18.77043915 C289.03743658 19.93670472 289.04467982 21.10297028 289.05214256 22.30457723 C289.06609487 25.52906181 289.05323408 28.75213617 289.02884972 31.9765172 C289.00906548 35.45849397 289.02397546 38.94034733 289.03449631 42.42234039 C289.04960219 49.23786317 289.03272414 56.0529484 289.0049454 62.8684168 C288.97376013 70.80551002 288.97400482 78.74250917 288.97546314 86.67965214 C288.97696424 100.84024561 288.94949979 115.00063564 288.90591049 129.1611557 C288.86363371 142.90240433 288.84239892 156.64347395 288.84438705 170.38478851 C288.84450692 171.23141617 288.84462679 172.07804383 288.84475029 172.95032687 C288.84487136 173.79549072 288.84499242 174.64065456 288.84511715 175.51142943 C288.84718653 191.15688963 288.82951951 206.80227378 288.8026575 222.44770933 C288.79360839 227.98083187 288.79041883 233.51394043 288.78906059 239.04706955 C288.7870144 245.78813291 288.77362315 252.52906806 288.74606217 259.27007701 C288.73221004 262.7096924 288.72307094 266.14914381 288.72684479 269.58878899 C288.72831249 273.31563797 288.71139402 277.04195513 288.68961716 280.76873016 C288.69426296 281.85831138 288.69890877 282.9478926 288.70369536 284.07049143 C288.61396402 293.33185604 288.61396402 293.33185604 285.28847885 297.14260101 C282.25396614 299.84288423 280.37225455 300.51812066 276.32806873 300.52291775 C275.3234535 300.53135769 274.31883827 300.53979763 273.28378016 300.54849333 C272.18213996 300.54248328 271.08049976 300.53647323 269.94547653 300.53028107 C268.18767244 300.53835937 268.18767244 300.53835937 266.39435714 300.54660088 C263.14068791 300.55844656 259.88734592 300.55680221 256.63367355 300.54943407 C253.1250703 300.54471157 249.61652246 300.55720408 246.10793686 300.56745148 C239.23398834 300.58466294 232.36013114 300.58547464 225.48616666 300.58023857 C219.89991051 300.57619999 214.31368139 300.57763671 208.72742653 300.58298683 C207.93288343 300.58373525 207.13834033 300.58448368 206.31972016 300.58525478 C204.70569595 300.58678623 203.09167174 300.58832457 201.47764754 300.58986975 C186.33563098 300.60360328 171.19366607 300.59815111 156.0516507 300.58668453 C142.194232 300.57675128 128.3369468 300.58969288 114.4795487 300.61361872 C100.25591792 300.63799216 86.03234937 300.64762192 71.80869812 300.640966 C63.82112524 300.63746986 55.83365506 300.63973178 47.84609795 300.65721703 C41.04640675 300.67191711 34.24689056 300.67260334 27.44720287 300.65514611 C23.9771644 300.64661546 20.50743886 300.64453635 17.03741646 300.65979767 C13.2774674 300.6729163 9.51837627 300.66153981 5.75846481 300.64380646 C4.65905534 300.65341146 3.55964586 300.66301647 2.42692095 300.67291254 C-4.9530085 300.60100317 -4.9530085 300.60100317 -8.86589527 298.23627567 C-11.59382365 295.14171865 -11.83769692 293.46689035 -11.84853554 289.43107986 C-11.85361008 288.43106343 -11.85868462 287.431047 -11.86391294 286.40072703 C-11.8644107 285.29394327 -11.86490845 284.18715951 -11.8654213 283.04683685 C-11.86980355 281.87738187 -11.8741858 280.70792689 -11.87870085 279.50303388 C-11.88978217 276.24688038 -11.89631848 272.99075404 -11.90088201 269.734586 C-11.90683206 266.22662458 -11.91844338 262.71868095 -11.92917252 259.21073151 C-11.9537101 250.7339032 -11.96832559 242.257069 -11.98123258 233.7802161 C-11.9849435 231.38674403 -11.98891682 228.99327255 -11.99298525 226.59980106 C-12.01822056 211.74279037 -12.04027788 196.88577878 -12.05271339 182.02875137 C-12.05564319 178.58639523 -12.05860483 175.14403912 -12.0616188 171.70168304 C-12.06236486 170.84608147 -12.06311091 169.9904799 -12.06387956 169.108951 C-12.0765359 155.24560286 -12.10976185 141.38238289 -12.15142064 127.51909468 C-12.19382244 113.29214539 -12.21740639 99.06526176 -12.22263396 84.83824944 C-12.22605006 76.84777238 -12.23782854 68.85749563 -12.27073669 60.86708069 C-12.29871434 54.06260863 -12.3097467 47.25837792 -12.29854123 40.4538528 C-12.2933486 36.9815958 -12.29627938 33.5098444 -12.32100677 30.0376606 C-12.34357249 26.27344802 -12.33545991 22.51051731 -12.31952286 18.74629974 C-12.33340495 17.64843887 -12.34728703 16.550578 -12.36158979 15.41944861 C-12.27535782 7.17754974 -12.27535782 7.17754974 -9.29852104 3.47986984 C-5.9027868 0.41193628 -4.4481248 0.01750282 0 0 Z " fill="#000000" transform="translate(67.71152114868164,58.857398986816406)"/>
<path d="M0 0 C5.94 0 11.88 0 18 0 C21.04379466 9.37176644 24.08682535 18.74378004 27.12857342 28.11621094 C28.54155332 32.46987646 29.95484601 36.82343988 31.36889648 41.17675781 C32.73778667 45.39108618 34.10579917 49.60569858 35.47324562 53.82049561 C35.99073925 55.41503701 36.50853009 57.009482 37.02664757 58.6038208 C38.69336591 63.73303004 40.35038062 68.86526786 42 74 C42.24209324 74.75031494 42.48418648 75.50062988 42.73361588 76.27368164 C43.44664795 78.48827851 44.15351337 80.70475093 44.85864258 82.921875 C45.07505496 83.59156311 45.29146734 84.26125122 45.51443768 84.95123291 C46.40214829 87.76269142 47 90.02999337 47 93 C47.66 93 48.32 93 49 93 C49.24081299 91.79690186 49.48162598 90.59380371 49.72973633 89.35424805 C51.17216061 82.88173442 53.26723273 76.63054602 55.32421875 70.33203125 C55.75337254 69.00766495 56.18214139 67.68317385 56.61054993 66.35856628 C57.73695135 62.87904272 58.86816253 59.40110251 60.00054932 55.92352295 C61.12731716 52.46092681 62.25017298 48.9970636 63.37304688 45.53320312 C63.81527304 44.16909658 64.25750325 42.80499135 64.69973755 41.44088745 C64.91681492 40.77126858 65.13389229 40.1016497 65.35754776 39.41173935 C66.00769766 37.40693072 66.65843671 35.40231413 67.30929565 33.3977356 C70.91790348 22.27938663 74.47410611 11.14482983 78 0 C83.94 0 89.88 0 96 0 C96 32.34 96 64.68 96 98 C93.03 98 90.06 98 87 98 C86.67 67.64 86.34 37.28 86 6 C84.35 11.28 82.7 16.56 81 22 C80.08723701 24.86129682 79.17215827 27.72104869 78.24511719 30.57763672 C77.89530289 31.65896881 77.89530289 31.65896881 77.53842163 32.762146 C76.79210446 35.06827437 76.04457869 37.37400833 75.296875 39.6796875 C74.76830347 41.31111782 74.23975992 42.94255721 73.71124268 44.57400513 C72.6160313 47.9539891 71.5201473 51.3337541 70.42382812 54.71337891 C69.01776301 59.04821492 67.61396431 63.38378137 66.2107048 67.71952629 C65.12575179 71.07063822 64.0393611 74.42128273 62.9525528 77.77179337 C62.43372168 79.37205714 61.91540276 80.97248706 61.3976059 82.57308578 C60.67900885 84.79384371 59.95841818 87.01394487 59.23730469 89.23388672 C58.91785385 90.22332779 58.91785385 90.22332779 58.59194946 91.23275757 C57.83343354 93.5624934 57.09746835 95.80506331 56 98 C50.72 98 45.44 98 40 98 C29.68916406 67.43140403 19.84319922 36.7227127 10 6 C9.67 36.36 9.34 66.72 9 98 C6.03 98 3.06 98 0 98 C0 65.66 0 33.32 0 0 Z " fill="#F8F8F8" transform="translate(415,161)"/>
<path d="M0 0 C6.29019814 4.49624272 10.47327969 9.24794601 12 17 C12.60451666 25.97855896 13.20111331 35.21223675 8 43 C2.62182542 49.14648523 -2.33436958 52.54845352 -10.59765625 53.20703125 C-18.88482438 53.51480778 -24.69489435 52.05603554 -31.25 46.9375 C-37.27330774 41.22247179 -39.11102224 35.21717337 -39.41772461 26.99389648 C-39.51388443 16.69054971 -37.8519175 10.28776875 -30.765625 2.6953125 C-22.94641872 -4.81250946 -9.25877003 -5.36630752 0 0 Z " fill="#000000" transform="translate(262,199)"/>
<path d="M0 0 C6.29019814 4.49624272 10.47327969 9.24794601 12 17 C12.60451666 25.97855896 13.20111331 35.21223675 8 43 C2.62182542 49.14648523 -2.33436958 52.54845352 -10.59765625 53.20703125 C-18.88482438 53.51480778 -24.69489435 52.05603554 -31.25 46.9375 C-37.27330774 41.22247179 -39.11102224 35.21717337 -39.41772461 26.99389648 C-39.51388443 16.69054971 -37.8519175 10.28776875 -30.765625 2.6953125 C-22.94641872 -4.81250946 -9.25877003 -5.36630752 0 0 Z " fill="#000000" transform="translate(172,199)"/>
<path d="M0 0 C2.97 0 5.94 0 9 0 C9 32.34 9 64.68 9 98 C6.36 98 3.72 98 1 98 C1 94.04 1 90.08 1 86 C0.34 86 -0.32 86 -1 86 C-1.25394531 86.58652344 -1.50789063 87.17304688 -1.76953125 87.77734375 C-3.1352553 90.24431831 -4.573346 91.70586574 -6.6875 93.5625 C-7.33074219 94.14128906 -7.97398437 94.72007812 -8.63671875 95.31640625 C-14.31805469 99.36377119 -19.52483461 100.53493795 -26.3125 100.4375 C-27.43289673 100.42505249 -27.43289673 100.42505249 -28.57592773 100.41235352 C-37.62588537 100.13668543 -44.52838665 97.36221677 -51.17578125 91.1328125 C-58.26857385 82.84016848 -60.1883049 74.83922684 -60.25 64.3125 C-60.270625 63.45205078 -60.29125 62.59160156 -60.3125 61.70507812 C-60.37141354 51.93279513 -57.70840162 44.17783831 -51 37 C-42.50500415 29.22611145 -34.188718 27.24642853 -22.91796875 27.65625 C-14.49565183 28.39519705 -8.99444242 31.25304794 -3.27734375 37.4140625 C-2 39 -2 39 -1 41 C-0.67 27.47 -0.34 13.94 0 0 Z M-47 46 C-52.2388384 54.51311239 -52.28496642 65.34943058 -50.421875 74.9921875 C-48.12597886 81.69202988 -43.78415045 86.04502533 -38 90 C-31.30918477 92.97369566 -22.81816464 93.17158991 -15.8125 90.9375 C-9.5135952 88.14373524 -4.49020764 83.81666667 -1.5 77.5625 C1.28456593 69.48107088 1.82123143 57.63473053 -1.890625 49.73828125 C-5.98208179 43.32737184 -10.40324854 38.68376845 -17.84375 36.4453125 C-29.83101028 33.96968266 -38.79293175 37.20202284 -47 46 Z " fill="#F5F5F5" transform="translate(274,160)"/>
<path d="M0 0 C2.97 0 5.94 0 9 0 C9 32.34 9 64.68 9 98 C6.36 98 3.72 98 1 98 C1 94.04 1 90.08 1 86 C0.34 86 -0.32 86 -1 86 C-1.25394531 86.58652344 -1.50789063 87.17304688 -1.76953125 87.77734375 C-3.1352553 90.24431831 -4.573346 91.70586574 -6.6875 93.5625 C-7.33074219 94.14128906 -7.97398437 94.72007812 -8.63671875 95.31640625 C-14.31805469 99.36377119 -19.52483461 100.53493795 -26.3125 100.4375 C-27.43289673 100.42505249 -27.43289673 100.42505249 -28.57592773 100.41235352 C-37.62588537 100.13668543 -44.52838665 97.36221677 -51.17578125 91.1328125 C-58.26857385 82.84016848 -60.1883049 74.83922684 -60.25 64.3125 C-60.270625 63.45205078 -60.29125 62.59160156 -60.3125 61.70507812 C-60.37141354 51.93279513 -57.70840162 44.17783831 -51 37 C-42.50500415 29.22611145 -34.188718 27.24642853 -22.91796875 27.65625 C-14.49565183 28.39519705 -8.99444242 31.25304794 -3.27734375 37.4140625 C-2 39 -2 39 -1 41 C-0.67 27.47 -0.34 13.94 0 0 Z M-47 46 C-52.2388384 54.51311239 -52.28496642 65.34943058 -50.421875 74.9921875 C-48.12597886 81.69202988 -43.78415045 86.04502533 -38 90 C-31.30918477 92.97369566 -22.81816464 93.17158991 -15.8125 90.9375 C-9.5135952 88.14373524 -4.49020764 83.81666667 -1.5 77.5625 C1.28456593 69.48107088 1.82123143 57.63473053 -1.890625 49.73828125 C-5.98208179 43.32737184 -10.40324854 38.68376845 -17.84375 36.4453125 C-29.83101028 33.96968266 -38.79293175 37.20202284 -47 46 Z " fill="#F5F5F5" transform="translate(184,160)"/>
<path d="M0 0 C2.97 0 5.94 0 9 0 C9 32.34 9 64.68 9 98 C6.36 98 3.72 98 1 98 C1 94.04 1 90.08 1 86 C0.319375 86.70125 -0.36125 87.4025 -1.0625 88.125 C-2.03676393 89.08831715 -3.01640569 90.04621157 -4 91 C-4.53109375 91.515625 -5.0621875 92.03125 -5.609375 92.5625 C-13.34398301 99.65847065 -20.9654925 100.71006734 -31.15234375 100.34765625 C-36.20252087 99.89134583 -39.7604288 98.71876309 -44 96 C-44.69480469 95.5875 -45.38960937 95.175 -46.10546875 94.75 C-53.42207917 89.91801713 -57.80868946 82.40666408 -60 74 C-61.00818916 63.93158086 -61.46133123 52.84701633 -56 44 C-55.57589844 43.2884375 -55.15179687 42.576875 -54.71484375 41.84375 C-49.96712193 34.7552294 -43.20924174 30.21134556 -35 28 C-25.52940913 27.19776073 -16.28405877 26.97522627 -8.4921875 32.91015625 C-2.425 38.15 -2.425 38.15 -1 41 C-0.67 27.47 -0.34 13.94 0 0 Z M-46 44 C-50.93970995 50.15182875 -51.48031554 56.50761465 -51.5625 64.125 C-51.57716309 64.97199463 -51.59182617 65.81898926 -51.60693359 66.69165039 C-51.48860955 74.00136765 -49.397002 79.224524 -44.625 84.75 C-37.13710545 91.16819533 -32.00621016 92.3611599 -22.33203125 92.28515625 C-17.58445948 91.87885761 -14.05049634 90.43370158 -10 88 C-9.0925 87.46375 -8.185 86.9275 -7.25 86.375 C-0.18432581 78.91678836 0.72298147 71.26395932 0.58911133 61.33935547 C0.25170014 53.55328131 -1.18322702 47.71488787 -6.90234375 42.1484375 C-18.01700207 33.14577759 -36.14727917 32.67630958 -46 44 Z " fill="#F9F9F9" transform="translate(769,161)"/>
<path d="M0 0 C2.97 0 5.94 0 9 0 C9 32.34 9 64.68 9 98 C6.36 98 3.72 98 1 98 C1 94.04 1 90.08 1 86 C0.319375 86.70125 -0.36125 87.4025 -1.0625 88.125 C-2.03676393 89.08831715 -3.01640569 90.04621157 -4 91 C-4.53109375 91.515625 -5.0621875 92.03125 -5.609375 92.5625 C-13.34398301 99.65847065 -20.9654925 100.71006734 -31.15234375 100.34765625 C-36.20252087 99.89134583 -39.7604288 98.71876309 -44 96 C-44.69480469 95.5875 -45.38960937 95.175 -46.10546875 94.75 C-53.42207917 89.91801713 -57.80868946 82.40666408 -60 74 C-61.00818916 63.93158086 -61.46133123 52.84701633 -56 44 C-55.57589844 43.2884375 -55.15179687 42.576875 -54.71484375 41.84375 C-49.96712193 34.7552294 -43.20924174 30.21134556 -35 28 C-25.52940913 27.19776073 -16.28405877 26.97522627 -8.4921875 32.91015625 C-2.425 38.15 -2.425 38.15 -1 41 C-0.67 27.47 -0.34 13.94 0 0 Z M-46 44 C-50.93970995 50.15182875 -51.48031554 56.50761465 -51.5625 64.125 C-51.57716309 64.97199463 -51.59182617 65.81898926 -51.60693359 66.69165039 C-51.48860955 74.00136765 -49.397002 79.224524 -44.625 84.75 C-37.13710545 91.16819533 -32.00621016 92.3611599 -22.33203125 92.28515625 C-17.58445948 91.87885761 -14.05049634 90.43370158 -10 88 C-9.0925 87.46375 -8.185 86.9275 -7.25 86.375 C-0.18432581 78.91678836 0.72298147 71.26395932 0.58911133 61.33935547 C0.25170014 53.55328131 -1.18322702 47.71488787 -6.90234375 42.1484375 C-18.01700207 33.14577759 -36.14727917 32.67630958 -46 44 Z " fill="#F9F9F9" transform="translate(679,161)"/>
<path d="M0 0 C0.63035156 0.32742187 1.26070312 0.65484375 1.91015625 0.9921875 C9.15051865 5.35231782 13.95236135 13.98412546 16 22 C17.07253999 32.26573992 16.94509016 42.74422268 12 52 C11.649375 52.66128906 11.29875 53.32257813 10.9375 54.00390625 C6.95998045 60.39832136 -0.37930834 65.15782027 -7.4453125 67.52734375 C-17.49198336 69.38613148 -28.00792083 69.13347431 -37 64 C-37.63035156 63.67257812 -38.26070312 63.34515625 -38.91015625 63.0078125 C-46.1394912 58.65432288 -50.9753083 50.01240556 -53 42 C-54.00500708 31.87192525 -54.40133414 20.9370759 -49 12 C-48.649375 11.36191406 -48.29875 10.72382813 -47.9375 10.06640625 C-43.94641411 3.62246549 -36.67660219 -1.13907115 -29.5546875 -3.52734375 C-19.50801664 -5.38613148 -8.99207917 -5.13347431 0 0 Z M-39 12 C-44.81315332 21.32333216 -45.36852306 32.16601368 -43.50390625 42.83984375 C-41.56801223 49.23813754 -38.23388111 53.83715373 -32.4375 57.3125 C-25.35091244 60.79137026 -17.26575221 61.14035398 -9.546875 59.46875 C-2.70004957 57.06452122 1.4522633 53.23912316 5 47 C6.7051803 42.00016775 7.35616598 37.37884027 7.3125 32.125 C7.30758545 31.42391113 7.3026709 30.72282227 7.29760742 30.00048828 C7.10234927 21.34704738 5.21678142 15.07549093 -1 9 C-12.70267939 0.79497535 -28.91367766 1.68444306 -39 12 Z " fill="#F8F8F8" transform="translate(971,193)"/>
<path d="M0 0 C0.63035156 0.32742187 1.26070312 0.65484375 1.91015625 0.9921875 C9.15051865 5.35231782 13.95236135 13.98412546 16 22 C17.07253999 32.26573992 16.94509016 42.74422268 12 52 C11.649375 52.66128906 11.29875 53.32257813 10.9375 54.00390625 C6.95998045 60.39832136 -0.37930834 65.15782027 -7.4453125 67.52734375 C-17.49198336 69.38613148 -28.00792083 69.13347431 -37 64 C-37.63035156 63.67257812 -38.26070312 63.34515625 -38.91015625 63.0078125 C-46.1394912 58.65432288 -50.9753083 50.01240556 -53 42 C-54.00500708 31.87192525 -54.40133414 20.9370759 -49 12 C-48.649375 11.36191406 -48.29875 10.72382813 -47.9375 10.06640625 C-43.94641411 3.62246549 -36.67660219 -1.13907115 -29.5546875 -3.52734375 C-19.50801664 -5.38613148 -8.99207917 -5.13347431 0 0 Z M-39 12 C-44.81315332 21.32333216 -45.36852306 32.16601368 -43.50390625 42.83984375 C-41.56801223 49.23813754 -38.23388111 53.83715373 -32.4375 57.3125 C-25.35091244 60.79137026 -17.26575221 61.14035398 -9.546875 59.46875 C-2.70004957 57.06452122 1.4522633 53.23912316 5 47 C6.7051803 42.00016775 7.35616598 37.37884027 7.3125 32.125 C7.30758545 31.42391113 7.3026709 30.72282227 7.29760742 30.00048828 C7.10234927 21.34704738 5.21678142 15.07549093 -1 9 C-12.70267939 0.79497535 -28.91367766 1.68444306 -39 12 Z " fill="#F8F8F8" transform="translate(585,193)"/>
<path d="M0 0 C2.97 0 5.94 0 9 0 C9.0093457 1.41216797 9.01869141 2.82433594 9.02832031 4.27929688 C9.06833663 9.54263292 9.13412852 14.80539163 9.20751953 20.06835938 C9.2356616 22.34172116 9.25690961 24.61517955 9.27099609 26.88867188 C9.29251882 30.1658653 9.33921885 33.44190531 9.390625 36.71875 C9.39185364 37.72740112 9.39308228 38.73605225 9.39434814 39.77526855 C9.52122662 45.95485954 10.3559189 50.87903776 14 56 C20.22989804 60.82817098 27.42805752 60.50674519 35 60 C41.12279526 58.96748815 44.54017767 55.92147113 48.5546875 51.328125 C52.26593467 45.35000794 52.3246565 38.9599692 52.4140625 32.12890625 C52.43342865 31.206577 52.4527948 30.28424774 52.4727478 29.33396912 C52.5321612 26.41023789 52.57877509 23.48646647 52.625 20.5625 C52.66321502 18.5709471 52.70226877 16.5794101 52.7421875 14.58789062 C52.83783104 9.72539077 52.92200221 4.86281362 53 0 C55.97 0 58.94 0 62 0 C62 22.44 62 44.88 62 68 C59.36 68 56.72 68 54 68 C54 63.71 54 59.42 54 55 C53.34 55 52.68 55 52 55 C51.7215625 56.051875 51.7215625 56.051875 51.4375 57.125 C48.25416002 63.49167995 42.54175656 66.65150259 36 69 C33.26770526 69.3063482 30.84316159 69.47810379 28.125 69.4375 C27.42463623 69.43137695 26.72427246 69.42525391 26.00268555 69.41894531 C18.00698286 69.17819457 11.75008507 66.58579693 6 61 C0.22911778 53.41541193 -0.28669623 46.90973433 -0.1953125 37.6953125 C-0.1924826 36.61619598 -0.18965271 35.53707947 -0.18673706 34.42526245 C-0.1755766 30.99172701 -0.1504793 27.55845609 -0.125 24.125 C-0.11496487 21.79167044 -0.10583995 19.45833678 -0.09765625 17.125 C-0.07565075 11.41656534 -0.04114908 5.70832746 0 0 Z " fill="#F8F8F8" transform="translate(801,191)"/>
<path d="M0 0 C2.31 0 4.62 0 7 0 C7 59.4 7 118.8 7 180 C4.69 180 2.38 180 0 180 C0 120.6 0 61.2 0 0 Z " fill="#FFFFFF" transform="translate(317,112)"/>
<path d="M0 0 C2.31 0 4.62 0 7 0 C7 59.4 7 118.8 7 180 C4.69 180 2.38 180 0 180 C0 120.6 0 61.2 0 0 Z " fill="#FFFFFF" transform="translate(86,112)"/>
<path d="M0 0 C2.97 0 5.94 0 9 0 C9 32.34 9 64.68 9 98 C6.03 98 3.06 98 0 98 C0 65.66 0 33.32 0 0 Z " fill="#F6F6F7" transform="translate(888,161)"/>
</svg>
